<?xml version="1.0" encoding="utf-8"?>
<!-- Generator: Adobe Illustrator 15.1.0, SVG Export Plug-In . SVG Version: 6.00 Build 0)  -->
<!DOCTYPE svg PUBLIC "-//W3C//DTD SVG 1.1//EN" "http://www.w3.org/Graphics/SVG/1.1/DTD/svg11.dtd">
<svg version="1.1" id="Layer_1" xmlns="http://www.w3.org/2000/svg" xmlns:xlink="http://www.w3.org/1999/xlink" x="0px" y="0px"
	 width="337.311px" height="99.358px" viewBox="0 0 337.311 99.358" enable-background="new 0 0 337.311 99.358"
	 xml:space="preserve">
<g>
	<path fill="#FFFFFF" d="M9.388,98.054H0V4.042h35.728c5.389,0,10.061,0.848,14.017,2.543c3.955,1.695,7.192,3.911,9.714,6.649
		c2.521,2.738,4.389,5.825,5.606,9.258c1.216,3.436,1.826,6.934,1.826,10.497c0,3.565-0.609,7.086-1.826,10.562
		c-1.218,3.478-3.086,6.584-5.606,9.322c-2.521,2.738-5.76,4.955-9.714,6.65c-3.957,1.695-8.628,2.543-14.017,2.543h-7.563
		c-3.39,0-6.259,0.651-8.604,1.955c-2.348,1.305-4.283,2.914-5.804,4.825c-1.521,1.913-2.63,3.956-3.324,6.128
		c-0.697,2.174-1.043,4.173-1.043,5.998V98.054z M9.388,5.868v62.717c1.999-2.521,4.519-4.563,7.563-6.128
		c3.042-1.564,7.083-2.347,12.126-2.347h5.346c3.651,0,6.889-0.652,9.715-1.956c2.823-1.304,5.192-3.149,7.105-5.542
		c1.911-2.39,3.368-5.258,4.368-8.605c0.998-3.346,1.5-7.019,1.5-11.018c0-3.998-0.501-7.671-1.5-11.02
		c-1-3.345-2.457-6.214-4.368-8.604c-1.913-2.39-4.282-4.237-7.105-5.542c-2.826-1.304-6.063-1.955-9.715-1.955H9.388z"/>
	<path fill="#FFFFFF" d="M126.476,66.76c0,4.955-0.782,9.434-2.348,13.431c-1.563,3.999-3.716,7.432-6.454,10.301
		c-2.737,2.868-5.954,5.064-9.648,6.586c-3.696,1.52-7.628,2.28-11.8,2.28s-8.084-0.762-11.735-2.28
		c-3.651-1.521-6.845-3.718-9.583-6.586c-2.738-2.869-4.912-6.302-6.52-10.301c-1.609-3.997-2.412-8.477-2.412-13.431
		c0-4.954,0.803-9.431,2.412-13.43c1.606-3.998,3.78-7.433,6.52-10.301c2.738-2.869,5.933-5.063,9.583-6.585
		c3.651-1.52,7.563-2.282,11.735-2.282s8.104,0.763,11.8,2.282c3.694,1.521,6.911,3.716,9.648,6.585
		c2.738,2.868,4.891,6.303,6.454,10.301C125.693,57.329,126.476,61.806,126.476,66.76z M96.225,97.792
		c2.692,0,5.301-0.586,7.822-1.76s4.737-3,6.65-5.477c1.911-2.479,3.456-5.691,4.629-9.648c1.173-3.955,1.76-8.672,1.76-14.148
		c0-5.562-0.587-10.301-1.76-14.212c-1.173-3.912-2.718-7.106-4.629-9.584c-1.913-2.478-4.129-4.303-6.65-5.477
		c-2.521-1.174-5.13-1.76-7.822-1.76c-2.695,0-5.304,0.586-7.824,1.76c-2.522,1.174-4.739,2.999-6.65,5.477
		c-1.913,2.478-3.455,5.672-4.628,9.584c-1.174,3.911-1.761,8.65-1.761,14.212c0,5.477,0.587,10.193,1.761,14.148
		c1.173,3.957,2.715,7.172,4.628,9.648c1.911,2.477,4.128,4.303,6.65,5.477C90.922,97.207,93.53,97.792,96.225,97.792z"/>
	<path fill="#FFFFFF" d="M142.513,98.054h-8.736V1.825L142.513,0V98.054z"/>
	<path fill="#FFFFFF" d="M156.333,0c1.65,0,3.042,0.566,4.172,1.695c1.128,1.131,1.695,2.522,1.695,4.173
		c0,1.651-0.566,3.043-1.695,4.172c-1.131,1.131-2.521,1.695-4.172,1.695c-1.651,0-3.044-0.564-4.173-1.695
		c-1.13-1.129-1.695-2.521-1.695-4.172c0-1.65,0.564-3.042,1.695-4.173C153.289,0.566,154.681,0,156.333,0z M160.766,34.162v63.892
		h-8.867V35.988L160.766,34.162z"/>
	<path fill="#FFFFFF" d="M175.891,46.94c0,2.522,0.998,4.629,2.999,6.324c1.999,1.695,4.476,3.194,7.432,4.498
		c2.954,1.305,6.171,2.565,9.649,3.781c3.476,1.219,6.691,2.674,9.647,4.368c2.955,1.695,5.432,3.717,7.433,6.063
		c1.999,2.347,2.999,5.304,2.999,8.865c0,5.393-1.891,9.824-5.672,13.301c-3.78,3.479-8.889,5.216-15.32,5.216
		c-3.391,0-6.738-0.37-10.04-1.108c-3.306-0.736-6.26-1.584-8.867-2.541c-3.044-1.045-5.955-2.261-8.736-3.651l4.825-11.865
		c0.956,2,2.282,4.042,3.977,6.128c1.695,2.088,3.586,3.979,5.673,5.672c2.086,1.695,4.258,3.088,6.52,4.174
		c2.259,1.088,4.476,1.629,6.65,1.629c4.955,0,8.541-1.217,10.757-3.65c2.217-2.434,3.325-5.605,3.325-9.52
		c0-3.302-1.001-5.996-2.999-8.084c-2.001-2.086-4.499-3.889-7.498-5.41c-2.999-1.521-6.238-2.869-9.714-4.042
		c-3.479-1.174-6.716-2.498-9.715-3.977c-2.999-1.478-5.499-3.215-7.496-5.216c-2.002-1.999-2.999-4.563-2.999-7.693
		c0-2.78,0.563-5.193,1.694-7.236c1.129-2.042,2.651-3.716,4.564-5.021c1.911-1.304,4.127-2.259,6.649-2.868
		c2.521-0.607,5.17-0.913,7.954-0.913c3.391,0,6.605,0.371,9.649,1.108c3.042,0.74,5.691,1.545,7.954,2.412
		c2.606,1.131,5.04,2.348,7.302,3.651l-4.824,10.953c-0.958-1.999-2.132-3.978-3.521-5.934c-1.393-1.955-2.957-3.716-4.694-5.28
		c-1.74-1.564-3.608-2.847-5.607-3.847c-2-0.998-4.087-1.499-6.259-1.499c-1.74,0-3.435,0.195-5.085,0.586
		c-1.651,0.392-3.108,1.044-4.368,1.956c-1.261,0.913-2.281,2.066-3.063,3.455C176.282,43.116,175.891,44.854,175.891,46.94z"/>
	<path fill="#FFFFFF" d="M273.553,98.054h-8.867v-46.94c0-3.912-0.782-6.911-2.348-8.997c-1.564-2.086-3.999-3.129-7.302-3.129
		c-2.868,0-5.737,1.043-8.604,3.129c-2.869,2.086-5.411,5-7.628,8.736c-2.218,3.738-4.021,8.194-5.411,13.365
		c-1.393,5.173-2.087,10.888-2.087,17.147v16.689h-8.735V1.825L231.306,0v64.543c1.044-5.04,2.586-9.453,4.629-13.234
		c2.042-3.781,4.322-6.953,6.846-9.519c2.521-2.563,5.15-4.476,7.889-5.737c2.738-1.259,5.411-1.891,8.021-1.891
		c2.868,0,5.258,0.502,7.171,1.5c1.911,1,3.433,2.326,4.563,3.977c1.129,1.652,1.935,3.565,2.412,5.737
		c0.479,2.174,0.718,4.434,0.718,6.78V98.054L273.553,98.054z"/>
	<path fill="#FFFFFF" d="M280.723,66.76c0-4.954,0.736-9.431,2.217-13.43c1.477-3.998,3.541-7.433,6.192-10.301
		c2.65-2.869,5.779-5.063,9.389-6.585c3.605-1.52,7.498-2.282,11.67-2.282c3.13,0,6.259,0.479,9.389,1.435
		c3.129,0.958,5.953,2.565,8.476,4.824c2.521,2.262,4.563,5.261,6.129,8.997c1.563,3.738,2.347,8.39,2.347,13.952H310.19
		c-3.479,0-6.454,0.456-8.933,1.369c-2.478,0.912-4.412,2.131-5.802,3.65c-1.392,1.522-2.239,3.26-2.543,5.216
		c-0.306,1.956-0.021,3.977,0.848,6.063c2.26,4.608,5.366,8.129,9.322,10.563c3.955,2.436,8.105,3.65,12.453,3.65
		c2.693,0,5.085-0.412,7.171-1.238c2.086-0.825,3.955-1.891,5.607-3.193c1.648-1.306,3.105-2.738,4.367-4.304
		c1.26-1.565,2.324-3.085,3.194-4.563l1.435,0.912c-1.13,2.086-2.479,4.174-4.042,6.26c-1.564,2.086-3.391,3.998-5.478,5.736
		c-2.086,1.739-4.498,3.151-7.235,4.237c-2.738,1.086-5.891,1.63-9.453,1.63c-4.173,0-8.106-0.762-11.802-2.281
		c-3.694-1.521-6.909-3.717-9.647-6.584c-2.738-2.869-4.912-6.303-6.521-10.302C281.525,76.193,280.723,71.714,280.723,66.76z
		 M310.19,35.728c-2.522,0-4.978,0.479-7.367,1.434c-2.392,0.958-4.543,2.543-6.454,4.76c-1.913,2.217-3.435,5.15-4.563,8.801
		c-1.132,3.651-1.695,8.129-1.695,13.431c0,1.043,0.043,2.065,0.131,3.064c0.085,1,0.216,1.978,0.391,2.934
		c1.826-3.215,4.63-5.411,8.41-6.585c3.781-1.174,8.41-1.76,13.888-1.76h14.474c0-3.563-0.283-6.932-0.848-10.105
		c-0.566-3.173-1.499-5.933-2.805-8.28c-1.304-2.347-3.063-4.215-5.279-5.606C316.254,36.424,313.493,35.728,310.19,35.728z
		 M327.663,10.04l-16.689,16.951h-2.217l8.996-16.951H327.663z"/>
</g>
</svg>
