<?xml version="1.0" encoding="utf-8"?>
<!-- Generator: Adobe Illustrator 15.1.0, SVG Export Plug-In . SVG Version: 6.00 Build 0)  -->
<!DOCTYPE svg PUBLIC "-//W3C//DTD SVG 1.1//EN" "http://www.w3.org/Graphics/SVG/1.1/DTD/svg11.dtd">
<svg version="1.1" id="Layer_1" xmlns="http://www.w3.org/2000/svg" xmlns:xlink="http://www.w3.org/1999/xlink" x="0px" y="0px"
	 width="337.312px" height="134.3px" viewBox="0 0 337.312 134.3" enable-background="new 0 0 337.312 134.3" xml:space="preserve">
<path fill="#E8D4AD" d="M31.579,129.278c0,1.379-0.455,2.504-1.366,3.373c-0.911,0.87-2.089,1.305-3.532,1.305H17.99v-17.232h8.1
	c0.936,0,1.776,0.197,2.523,0.591c0.747,0.394,1.33,0.943,1.748,1.649c0.418,0.707,0.627,1.518,0.627,2.438
	c0,0.559-0.082,1.078-0.247,1.563c-0.163,0.483-0.397,0.906-0.702,1.267c-0.303,0.361-0.66,0.648-1.071,0.862
	c0.789,0.328,1.42,0.865,1.896,1.612S31.579,128.31,31.579,129.278z M20.97,119.211v4.504H27c0.656-0.427,0.985-1.114,0.985-2.067
	c0-0.737-0.223-1.33-0.666-1.772c-0.443-0.444-1.026-0.664-1.748-0.664H20.97z M20.97,131.47h5.193c0.738,0,1.325-0.222,1.76-0.666
	c0.435-0.441,0.652-1.041,0.652-1.796c0-0.591-0.147-1.091-0.443-1.502c-0.295-0.409-0.706-0.681-1.231-0.812H20.97V131.47z"/>
<path fill="#E8D4AD" d="M53.094,131.47v2.486H41.598v-17.232h11.497v2.487h-8.517v4.628h7.556v3.003h-7.556v4.628H53.094z"/>
<path fill="#E8D4AD" d="M66.732,129.278l-1.673,4.678h-3.176l6.548-17.232h3.003l6.523,17.232h-3.175l-1.674-4.678H66.732z
	 M69.933,120.393l-2.117,5.907h4.233L69.933,120.393z"/>
<path fill="#E8D4AD" d="M99.522,116.724v10.709c0,1.821-0.608,3.371-1.822,4.652c-1.216,1.28-2.676,1.921-4.382,1.921
	c-1.708,0-3.167-0.641-4.382-1.921c-1.215-1.281-1.822-2.831-1.822-4.652v-10.709h2.855v10.709c0,1.018,0.329,1.892,0.984,2.621
	c0.656,0.731,1.445,1.096,2.364,1.096s1.707-0.364,2.363-1.096c0.657-0.729,0.985-1.604,0.985-2.621v-10.709H99.522z"/>
<path fill="#E8D4AD" d="M114.313,134.055v-14.353h-5.612v-2.979h14.278v2.979h-5.663v14.353H114.313z"/>
<path fill="#E8D4AD" d="M142.403,116.724h3.521l-5.711,9.059l-0.272,0.419v7.854h-2.979v-7.854l-0.27-0.419l-5.687-9.059h3.521
	l2.436,3.89l1.502,2.362l1.476-2.362L142.403,116.724z"/>
<path fill="#E8D4AD" d="M186.762,131.938l0.196,0.171l-1.944,2.191l-0.198-0.172c-0.213-0.198-0.575-0.518-1.082-0.959
	c-0.592-0.51-1.06-0.912-1.403-1.207c-1.478,1.461-3.242,2.19-5.293,2.19c-1.658,0-3.033-0.476-4.123-1.428
	c-1.092-0.952-1.638-2.158-1.638-3.618c0-0.411,0.05-0.809,0.148-1.193c0.099-0.386,0.238-0.739,0.419-1.06
	c0.18-0.32,0.385-0.615,0.616-0.885c0.229-0.272,0.496-0.533,0.799-0.789c0.304-0.254,0.6-0.476,0.887-0.664
	c0.287-0.188,0.611-0.382,0.972-0.578c-0.885-1.494-1.328-2.741-1.328-3.743c0-0.983,0.369-1.858,1.107-2.62
	c0.738-0.765,1.74-1.145,3.003-1.145c1.181,0,2.17,0.344,2.967,1.033c0.795,0.688,1.194,1.55,1.194,2.584
	c0,0.492-0.095,0.96-0.284,1.403c-0.189,0.443-0.472,0.857-0.85,1.243s-0.722,0.7-1.033,0.948c-0.313,0.246-0.714,0.533-1.207,0.86
	c0.854,1.084,1.954,2.233,3.299,3.447c0.312-0.804,0.46-1.657,0.443-2.561v-0.246h2.708v0.222c0.049,1.525-0.28,2.988-0.984,4.382
	c0.344,0.297,0.861,0.73,1.55,1.305C186.179,131.444,186.532,131.739,186.762,131.938z M177.383,131.42
	c1.182,0,2.19-0.426,3.027-1.28c-1.69-1.624-3.011-3.043-3.963-4.258c-0.672,0.492-1.198,0.985-1.575,1.477
	c-0.377,0.492-0.566,1.043-0.566,1.649c0,0.705,0.287,1.283,0.861,1.735C175.741,131.194,176.479,131.42,177.383,131.42z
	 M177.974,118.816c-0.443,0-0.792,0.131-1.046,0.395c-0.255,0.262-0.382,0.615-0.382,1.059c0,0.673,0.304,1.483,0.911,2.437
	c0.641-0.459,1.14-0.887,1.502-1.28c0.361-0.395,0.541-0.805,0.541-1.231c0-0.393-0.144-0.722-0.43-0.983
	C178.781,118.947,178.417,118.816,177.974,118.816z"/>
<path fill="#E8D4AD" d="M218.222,126.89c-1.871-0.606-3.222-1.307-4.051-2.104c-0.828-0.796-1.242-1.784-1.242-2.967
	c0-1.214,0.492-2.313,1.476-3.298c1.215-1.199,2.791-1.798,4.728-1.798h0.024c2.052,0,3.635,0.625,4.752,1.87
	c0.458,0.493,0.812,1.072,1.058,1.736c0.247,0.664,0.394,1.198,0.443,1.6c0.05,0.403,0.066,0.785,0.05,1.145h-2.879
	c0.015-0.017,0.015-0.127,0-0.331c-0.017-0.205-0.042-0.428-0.074-0.665c-0.033-0.238-0.111-0.504-0.234-0.799
	c-0.124-0.297-0.292-0.551-0.504-0.765c-0.542-0.606-1.412-0.91-2.61-0.91h-0.024c-1.149,0-2.043,0.32-2.683,0.959
	c-0.428,0.429-0.641,0.838-0.641,1.232c0,0.18,0.02,0.332,0.061,0.455s0.152,0.291,0.333,0.504c0.181,0.214,0.517,0.439,1.009,0.678
	c0.493,0.236,1.124,0.479,1.896,0.727l0.59,0.196c0.509,0.164,0.899,0.287,1.169,0.369c0.271,0.082,0.641,0.218,1.108,0.406
	c0.467,0.188,0.832,0.353,1.096,0.492c0.262,0.14,0.565,0.328,0.91,0.566c0.346,0.237,0.607,0.476,0.789,0.714
	c0.18,0.238,0.345,0.517,0.493,0.837c0.146,0.32,0.229,0.668,0.246,1.047c0.017,0.229,0.012,0.484-0.013,0.762
	c-0.023,0.28-0.135,0.677-0.332,1.194c-0.197,0.518-0.492,0.981-0.886,1.392c-1.117,1.197-2.799,1.795-5.047,1.795
	c-1.854,0-3.364-0.589-4.528-1.772c-0.575-0.573-1.015-1.241-1.318-2.005s-0.455-1.563-0.455-2.399l2.879,0.05
	c-0.017,0.935,0.287,1.714,0.911,2.337c0.625,0.624,1.461,0.936,2.511,0.936c1.412,0,2.396-0.295,2.955-0.886
	c0.147-0.164,0.262-0.35,0.344-0.554c0.082-0.205,0.127-0.357,0.135-0.456c0.008-0.099,0.003-0.172-0.013-0.222
	c-0.033-0.442-1.305-1.066-3.815-1.871L218.222,126.89z"/>
<path fill="#E8D4AD" d="M239.22,129.278l-1.673,4.678h-3.176l6.547-17.232h3.004l6.523,17.232h-3.175l-1.674-4.678H239.22z
	 M242.421,120.393l-2.117,5.907h4.234L242.421,120.393z"/>
<path fill="#E8D4AD" d="M271.32,131.47v2.486h-11.497v-17.232h2.979v14.746H271.32z"/>
<path fill="#E8D4AD" d="M292.169,132.798c-1.247,0.772-2.602,1.158-4.061,1.158c-1.462,0-2.815-0.386-4.063-1.158
	c-1.247-0.77-2.232-1.819-2.953-3.15c-0.724-1.329-1.085-2.773-1.085-4.333c0-1.559,0.361-3.003,1.085-4.332
	c0.721-1.329,1.706-2.375,2.953-3.138c1.247-0.766,2.601-1.146,4.063-1.146c1.459,0,2.813,0.38,4.061,1.146
	c1.247,0.763,2.232,1.809,2.954,3.138c0.723,1.329,1.083,2.773,1.083,4.332c0,1.56-0.36,3.004-1.083,4.333
	C294.401,130.979,293.416,132.028,292.169,132.798z M291.813,121.24c-1.026-1.123-2.261-1.686-3.704-1.686
	c-1.445,0-2.676,0.563-3.693,1.686c-1.018,1.125-1.527,2.483-1.527,4.074c0,1.592,0.51,2.95,1.527,4.074
	c1.018,1.125,2.248,1.687,3.693,1.687c0.705,0,1.382-0.151,2.029-0.454c0.648-0.304,1.207-0.715,1.675-1.232
	c0.467-0.517,0.841-1.129,1.119-1.834c0.279-0.705,0.42-1.453,0.42-2.24C293.352,123.724,292.838,122.365,291.813,121.24z"/>
<path fill="#E8D4AD" d="M309.106,121.524v12.432h-2.979v-17.232h3.249l6.967,12.038v-12.038h2.979v17.232h-3.027L309.106,121.524z"
	/>
<g>
	<path fill="#FFFFFF" d="M9.388,98.054H0V4.042h35.727c5.389,0,10.061,0.848,14.017,2.543c3.955,1.695,7.192,3.911,9.714,6.649
		c2.52,2.738,4.388,5.825,5.606,9.258c1.216,3.436,1.826,6.934,1.826,10.497c0,3.565-0.609,7.086-1.826,10.562
		c-1.218,3.478-3.086,6.584-5.606,9.322c-2.522,2.738-5.76,4.955-9.714,6.65c-3.957,1.695-8.628,2.543-14.017,2.543h-7.563
		c-3.39,0-6.259,0.651-8.605,1.955c-2.347,1.305-4.283,2.914-5.803,4.825c-1.522,1.913-2.63,3.956-3.325,6.128
		c-0.697,2.174-1.043,4.173-1.043,5.998V98.054z M9.388,5.868v62.718c1.999-2.521,4.519-4.564,7.563-6.129
		c3.042-1.564,7.083-2.347,12.126-2.347h5.346c3.651,0,6.888-0.652,9.714-1.956c2.824-1.304,5.193-3.149,7.106-5.542
		c1.911-2.39,3.368-5.258,4.368-8.605c0.998-3.346,1.5-7.019,1.5-11.018c0-3.998-0.501-7.671-1.5-11.019
		c-1-3.345-2.457-6.214-4.368-8.605c-1.913-2.39-4.282-4.237-7.106-5.542c-2.826-1.304-6.063-1.955-9.714-1.955H9.388z"/>
	<path fill="#FFFFFF" d="M126.476,66.76c0,4.955-0.782,9.434-2.347,13.431c-1.564,3.999-3.716,7.432-6.454,10.301
		c-2.738,2.868-5.955,5.064-9.649,6.585c-3.696,1.52-7.628,2.281-11.8,2.281s-8.084-0.762-11.735-2.281
		c-3.651-1.521-6.845-3.717-9.583-6.585c-2.738-2.869-4.912-6.302-6.52-10.301c-1.609-3.997-2.412-8.476-2.412-13.431
		c0-4.954,0.803-9.431,2.412-13.43c1.607-3.998,3.781-7.433,6.52-10.301c2.738-2.869,5.933-5.063,9.583-6.585
		c3.651-1.52,7.563-2.282,11.735-2.282s8.104,0.763,11.8,2.282c3.694,1.521,6.911,3.716,9.649,6.585
		c2.738,2.868,4.89,6.303,6.454,10.301C125.693,57.329,126.476,61.806,126.476,66.76z M96.225,97.793
		c2.693,0,5.301-0.587,7.823-1.761c2.521-1.173,4.737-2.999,6.65-5.476c1.911-2.478,3.456-5.692,4.629-9.649
		c1.173-3.954,1.76-8.671,1.76-14.147c0-5.562-0.587-10.301-1.76-14.212c-1.173-3.912-2.718-7.106-4.629-9.584
		c-1.913-2.478-4.129-4.303-6.65-5.477c-2.522-1.174-5.13-1.76-7.823-1.76c-2.695,0-5.303,0.586-7.824,1.76
		c-2.522,1.174-4.739,2.999-6.65,5.477c-1.913,2.478-3.455,5.672-4.628,9.584c-1.174,3.911-1.761,8.65-1.761,14.212
		c0,5.477,0.587,10.193,1.761,14.147c1.173,3.957,2.715,7.172,4.628,9.649c1.911,2.477,4.128,4.303,6.65,5.476
		C90.922,97.206,93.53,97.793,96.225,97.793z"/>
	<path fill="#FFFFFF" d="M142.513,98.054h-8.736V1.825L142.513,0V98.054z"/>
	<path fill="#FFFFFF" d="M156.333,0c1.65,0,3.042,0.566,4.172,1.695c1.128,1.131,1.695,2.522,1.695,4.173
		c0,1.651-0.566,3.043-1.695,4.172c-1.131,1.131-2.522,1.695-4.172,1.695c-1.652,0-3.044-0.564-4.173-1.695
		c-1.13-1.129-1.695-2.521-1.695-4.172c0-1.65,0.564-3.042,1.695-4.173C153.289,0.566,154.681,0,156.333,0z M160.766,34.162v63.892
		h-8.867V35.988L160.766,34.162z"/>
	<path fill="#FFFFFF" d="M175.891,46.94c0,2.522,0.998,4.629,2.999,6.324c1.999,1.695,4.476,3.194,7.432,4.498
		c2.954,1.305,6.171,2.565,9.649,3.781c3.476,1.219,6.692,2.674,9.648,4.368c2.955,1.695,5.432,3.717,7.433,6.063
		c1.999,2.347,2.999,5.304,2.999,8.866c0,5.392-1.891,9.824-5.672,13.3c-3.781,3.479-8.889,5.216-15.321,5.216
		c-3.39,0-6.738-0.37-10.04-1.108c-3.305-0.737-6.259-1.585-8.867-2.542c-3.044-1.044-5.955-2.26-8.736-3.651l4.825-11.865
		c0.956,2,2.282,4.042,3.977,6.128c1.695,2.087,3.585,3.978,5.672,5.672c2.086,1.695,4.258,3.087,6.52,4.173
		c2.259,1.088,4.476,1.63,6.65,1.63c4.955,0,8.541-1.217,10.757-3.651c2.217-2.433,3.325-5.606,3.325-9.519
		c0-3.302-1.001-5.997-2.999-8.084c-2.001-2.086-4.499-3.889-7.498-5.411c-2.999-1.52-6.238-2.868-9.714-4.042
		c-3.478-1.174-6.715-2.498-9.714-3.977c-2.999-1.478-5.499-3.215-7.497-5.216c-2.001-1.999-2.999-4.563-2.999-7.693
		c0-2.78,0.564-5.193,1.695-7.236c1.129-2.042,2.651-3.716,4.564-5.021c1.911-1.304,4.127-2.259,6.65-2.868
		c2.52-0.607,5.17-0.913,7.954-0.913c3.39,0,6.605,0.371,9.649,1.108c3.042,0.74,5.692,1.545,7.954,2.412
		c2.607,1.131,5.04,2.348,7.302,3.651l-4.824,10.953c-0.958-1.999-2.132-3.978-3.521-5.934c-1.392-1.955-2.957-3.716-4.694-5.28
		c-1.74-1.564-3.608-2.847-5.607-3.847c-2-0.998-4.087-1.499-6.259-1.499c-1.74,0-3.435,0.195-5.085,0.586
		c-1.652,0.392-3.109,1.044-4.368,1.956c-1.261,0.913-2.282,2.066-3.064,3.455C176.282,43.116,175.891,44.854,175.891,46.94z"/>
	<path fill="#FFFFFF" d="M273.553,98.054h-8.867v-46.94c0-3.912-0.782-6.911-2.347-8.997s-3.999-3.129-7.302-3.129
		c-2.868,0-5.737,1.043-8.605,3.129c-2.869,2.086-5.411,5-7.628,8.736c-2.217,3.738-4.021,8.194-5.411,13.365
		c-1.392,5.173-2.087,10.888-2.087,17.146v16.69h-8.735V1.825L231.306,0v64.543c1.044-5.04,2.586-9.453,4.629-13.234
		c2.042-3.781,4.323-6.953,6.846-9.519c2.521-2.563,5.15-4.476,7.889-5.737c2.738-1.259,5.411-1.891,8.02-1.891
		c2.868,0,5.258,0.502,7.171,1.5c1.911,1,3.433,2.326,4.563,3.977c1.129,1.652,1.934,3.565,2.412,5.737
		c0.478,2.174,0.718,4.434,0.718,6.78V98.054z"/>
	<path fill="#FFFFFF" d="M280.723,66.76c0-4.954,0.737-9.431,2.217-13.43c1.477-3.998,3.541-7.433,6.193-10.301
		c2.65-2.869,5.779-5.063,9.388-6.585c3.606-1.52,7.498-2.282,11.67-2.282c3.13,0,6.259,0.479,9.389,1.435
		c3.129,0.958,5.953,2.565,8.475,4.824c2.521,2.262,4.564,5.261,6.129,8.997c1.564,3.738,2.347,8.39,2.347,13.952H310.19
		c-3.478,0-6.454,0.456-8.932,1.369c-2.478,0.912-4.413,2.131-5.802,3.65c-1.392,1.522-2.239,3.26-2.543,5.216
		c-0.306,1.956-0.022,3.977,0.848,6.063c2.259,4.608,5.366,8.129,9.322,10.562c3.955,2.435,8.105,3.65,12.453,3.65
		c2.693,0,5.085-0.411,7.171-1.238c2.086-0.825,3.955-1.891,5.607-3.194c1.649-1.305,3.106-2.738,4.367-4.303
		c1.26-1.565,2.325-3.085,3.195-4.564l1.434,0.913c-1.13,2.086-2.478,4.173-4.042,6.259s-3.39,3.999-5.477,5.737
		c-2.086,1.739-4.498,3.151-7.236,4.237s-5.89,1.63-9.453,1.63c-4.173,0-8.106-0.762-11.801-2.281
		c-3.695-1.521-6.91-3.717-9.648-6.585c-2.738-2.869-4.912-6.302-6.52-10.301C281.525,76.193,280.723,71.715,280.723,66.76z
		 M310.19,35.728c-2.522,0-4.977,0.479-7.367,1.434c-2.392,0.958-4.543,2.543-6.454,4.76c-1.913,2.217-3.435,5.15-4.563,8.801
		c-1.131,3.651-1.695,8.129-1.695,13.431c0,1.043,0.043,2.065,0.131,3.064c0.085,1,0.216,1.978,0.391,2.934
		c1.826-3.215,4.629-5.411,8.41-6.585s8.41-1.76,13.887-1.76h14.474c0-3.563-0.283-6.932-0.848-10.105
		c-0.566-3.173-1.499-5.933-2.804-8.28c-1.304-2.347-3.063-4.215-5.28-5.606C316.254,36.424,313.493,35.728,310.19,35.728z
		 M327.663,10.04l-16.69,16.951h-2.216l8.996-16.951H327.663z"/>
</g>
</svg>
